<?xml version="1.0" encoding="utf-8"?>
<!-- Generator: Adobe Illustrator 19.0.1, SVG Export Plug-In . SVG Version: 6.00 Build 0)  -->
<svg version="1.1" id="Слой_1" xmlns="http://www.w3.org/2000/svg" xmlns:xlink="http://www.w3.org/1999/xlink" x="0px" y="0px"
	 viewBox="0 0 249.4 56.7" style="enable-background:new 0 0 249.4 56.7;" xml:space="preserve">
<style type="text/css">
	.st0{fill:#FFFFFF;}
</style>
<path class="st0" d="M47.9,27.5c-4.7,4.8-11.2,7.8-18.4,7.8c-7.2,0-13.8-3-18.4-7.8l-2.1,1.8c4,7.3,11.7,12.2,20.6,12.2l0,0h0
	c0.3,0,0.6,0,1,0c0.3,0,0.6,0,0.9-0.1c0,0,0,0,0,0c8.1-0.6,15-5.4,18.7-12.1L47.9,27.5z"/>
<path class="st0" d="M30.6,0.6c-0.4,0-0.7,0-1.1,0h0l0,0h0c-0.4,0-0.7,0-1.1,0C13.5,1.1,1.6,13.4,1.6,28.4
	c0,15.4,12.5,27.9,27.9,27.9c15.4,0,27.9-12.5,27.9-27.9C57.4,13.4,45.5,1.1,30.6,0.6z M29.5,6L29.5,6c6.2,0,10.6,3.1,10.6,5.8
	c0,2.8-4.3,5.8-10.6,5.8c-6.2,0-10.6-3.1-10.6-5.8C18.9,9.1,23.2,6,29.5,6z M51.9,30.2L51.9,30.2C51,41.7,41.3,50.9,29.5,50.9
	C17.7,50.9,8,41.7,7.1,30.2l0,0c0-0.2,0-0.3,0-0.5c0-0.1,0-0.1,0-0.2c0-0.3,0-0.5,0-0.8c0-0.1,0-0.2,0-0.3c0-0.6,0-1.1,0.1-1.7
	c0,0,0,0,0,0c0.1-1.1,0.2-2.1,0.4-3c0,0,0,0,0,0c0.1-0.6,0.3-1.3,0.5-1.9c0.5-1.6,1-2.6,1-2.6l0,0c1.1-2.5,2.7-4.7,4.5-6.6
	c0.6,5.9,7.4,10.4,16,10.4c8.6,0,15.4-4.5,16-10.4c1.9,1.9,3.4,4.2,4.5,6.7l0,0c0,0,0.5,1,1,2.8c0,0.1,0,0.2,0.1,0.3
	c0,0,0,0.1,0,0.1c0.1,0.4,0.2,0.8,0.3,1.3c0,0,0,0,0,0c0.2,0.9,0.3,1.9,0.4,3c0,0,0,0,0,0c0,0.2,0,0.3,0,0.5c0,0.1,0,0.1,0,0.2
	c0,0.1,0,0.2,0,0.4c0,0.2,0,0.4,0,0.5c0,0,0,0.1,0,0.1c0,0,0,0,0,0C51.9,29,51.9,29.6,51.9,30.2z"/>
<rect x="224.3" y="19.3" class="st0" width="5.1" height="24.5"/>
<path class="st0" d="M245.7,43.8c-0.8,0-1.6-0.1-2.4-0.2c-0.8-0.1-1.6-0.4-2.6-0.7c-1-0.4-1.8-0.9-2.5-1.5c-0.7-0.6-1.3-1.5-1.7-2.6
	c-0.5-1.1-0.7-2.5-0.7-4.1V12.6l5.1-0.5v7.3h7v3.8h-7v10.8c0,2.1,0.6,3.6,1.9,4.4c1.2,0.8,2.5,1.1,3.9,1.1c0.1,0,0.9,0,1.6,0v4.3
	C247.1,43.8,246,43.8,245.7,43.8z"/>
<path class="st0" d="M106.7,44.2c-3.9,0-7-1.2-9.4-3.7c-2.4-2.4-3.6-5.4-3.6-9c0-3.7,1.2-6.8,3.4-9.1c2.3-2.3,5.3-3.5,8.9-3.5
	c3.3,0,6,1.1,7.9,3.2c1.9,2.2,2.8,4.9,2.8,8.2c0,0.4,0,0.9-0.1,1.6l-0.1,0.8H100l0.1,0.6c0.3,1.7,1,3,2.2,3.9
	c1.3,1.1,2.9,1.6,4.8,1.6c2.1,0,4.1-0.7,6.1-2.1l0.8-0.6l2.4,4.4l-0.6,0.5c-1.1,0.9-2.4,1.6-3.9,2.1
	C110.2,43.9,108.4,44.2,106.7,44.2z M110.5,28.5l-0.1-0.5c-0.1-1.2-0.6-2.3-1.3-3c-0.9-0.9-2-1.3-3.3-1.3c-1.5,0-2.7,0.5-3.7,1.4
	c-0.8,0.8-1.4,1.7-1.8,2.9l-0.2,0.6H110.5z"/>
<path class="st0" d="M163.7,43.7V29.4c0-1.6-0.3-2.8-0.8-3.6c-0.5-0.8-1.5-1.2-2.9-1.2c-2,0-3.7,0.7-4.9,2.2
	c-1.2,1.5-1.9,3.4-1.9,5.6v11.2H147V12.6l6.1-0.6v9.8l0,0.5c1.5-1.4,4.1-3.1,7.4-3.3l0.1,0l0.4,0l0.4,0c2.8,0,5,0.8,6.4,2.3
	c1.4,1.6,2.1,3.8,2.1,6.9v15.5H163.7z"/>
<path class="st0" d="M133.6,44.2c-3.9,0-7.1-1.2-9.5-3.6c-2.4-2.4-3.6-5.4-3.6-9c0-3.5,1.2-6.5,3.6-9c2.4-2.4,5.6-3.7,9.5-3.7
	c0,0,0.3,0,0.3,0l1,0l5.5,0.2v5.3l-6.4-0.2c-2.1,0-3.9,0.7-5.2,2.1c-1.3,1.4-2,3.2-2,5.2c0,2.1,0.7,3.8,2,5.3
	c1.4,1.4,3.1,2.2,5.3,2.2c2.3,0,4.4-0.8,6.3-2.4l0.8-0.7l2.4,4.4l-0.5,0.5c-1.1,1-2.4,1.8-3.9,2.4C137.4,43.8,135.5,44.2,133.6,44.2
	z"/>
<path class="st0" d="M86.8,43.9c-0.8,0-1.6-0.1-2.4-0.2c-0.8-0.1-1.6-0.4-2.6-0.7c-1-0.4-1.8-0.9-2.5-1.5c-0.7-0.6-1.3-1.5-1.8-2.7
	c-0.5-1.1-0.7-2.5-0.7-4.1v-22l0,0l6.1-0.6l0,0v7.8h6.5v4.9h-6.5V34c0,1.7,0.5,2.8,1.4,3.5c1,0.6,2,0.9,3.2,0.9c0,0,0.7,0,1.3,0
	l0.9,0v5.4l-0.8,0.1C88.1,43.8,87,43.9,86.8,43.9z"/>
<path class="st0" d="M193.9,37.4c0-4.4-2.7-5.8-6.3-7.2c-0.9-0.3-1.8-0.7-2.6-1c-1.2-0.5-1.9-0.7-2.2-0.9l-0.1-0.1
	c-0.3-0.1-0.5-0.2-0.7-0.3l-0.1-0.1c-0.4-0.2-0.8-0.4-1-0.6c-0.7-0.5-1.1-1-1.2-1.5c0-0.1,0-0.2,0-0.3c0-0.2,0-0.3,0-0.5
	c0.2-0.7,0.7-1.2,1.5-1.5c0.6-0.2,1.5-0.3,2.7-0.3v0c0,0,0.4,0,0.5,0c0.1,0,0.3,0,0.4,0l6.2,0.2v-4.4l-6.2-0.2h-0.4
	c-2.4,0-4.4,0.4-6,1.1c-2.4,1.3-3.6,3-3.6,5.4c0,1.1,0.2,1.9,0.5,2.7c0.7,1.6,2.3,2.9,5.1,4.1l0,0l0.3,0.1c0.1,0.1,0.2,0.1,0.4,0.2
	l0.9,0.4l1.9,0.8c0.2,0.1,0.4,0.2,0.6,0.2l0.3,0.1c0.2,0.1,0.5,0.2,0.7,0.3l0.2,0.1c1.9,0.8,3.3,1.5,3.4,2.6c0,0.1,0,0.1,0,0.2
	c0,0.9-0.4,1.6-1.2,2.1c-0.7,0.4-2,0.5-2.9,0.5c-0.1,0-0.3,0-0.4,0l-8.5-0.3v4.4l8.2,0.3l0.6,0c2.8,0,4.9-0.5,6.5-1.7
	c0.1-0.1,0.3-0.2,0.5-0.4l0.2-0.2l0,0C193.3,40.8,193.9,39.3,193.9,37.4z"/>
<polygon class="st0" points="215,19.3 208.4,38.8 207.8,38.8 206.9,38.8 200.3,19.3 195,19.3 203.7,43.8 207.8,43.8 211.5,43.8 
	220.3,19.3 "/>
</svg>
